<?xml version="1.0" ?>
<svg xmlns="http://www.w3.org/2000/svg" xmlns:ev="http://www.w3.org/2001/xml-events" xmlns:xlink="http://www.w3.org/1999/xlink" baseProfile="full" height="600px" version="1.1" viewBox="220.85065539107634 220.72014131847098 347.1332400940548 347.0930070990682" width="600px">
	<defs/>
	<path d="M 400.0,400.0 C 400.0,400.0 400.0,400.0 400.0,400.0 C 400.0,400.0 400.0,400.0 400.0,400.0 C 400.0,400.0 400.0,400.0 400.0,400.0" fill="none" stroke="#00A287" stroke-width="1"/>
	<path d="M 401.28,392.1 C 396.49,391.33 390.8,398.31 392.52,402.84 C 394.24,407.37 403.13,408.81 406.2,405.06 C 409.26,401.3 406.07,392.88 401.28,392.1" fill="none" stroke="#FF6700" stroke-width="1"/>
	<path d="M 401.56,384.08 C 391.9,383.13 381.42,397.78 385.43,406.61 C 389.44,415.45 407.37,417.2 413.01,409.31 C 418.66,401.42 411.21,385.02 401.56,384.08" fill="none" stroke="#00A287" stroke-width="1"/>
	<path d="M 401.68,376.06 C 387.17,375.04 372.05,397.43 378.42,410.51 C 384.8,423.59 411.75,425.49 419.89,413.43 C 428.03,401.37 416.2,377.08 401.68,376.06" fill="none" stroke="#FF6700" stroke-width="1"/>
	<path d="M 402.74,368.12 C 383.41,366.46 362.79,396.0 371.02,413.57 C 379.25,431.14 415.14,434.22 426.24,418.31 C 437.34,402.4 422.07,369.78 402.74,368.12" fill="none" stroke="#00A287" stroke-width="1"/>
	<path d="M 405.58,360.39 C 381.57,357.01 353.83,392.49 362.91,414.97 C 371.99,437.46 416.58,443.74 431.51,424.63 C 446.45,405.53 429.59,363.77 405.58,360.39" fill="none" stroke="#FF6700" stroke-width="1"/>
	<path d="M 410.46,353.15 C 382.06,346.81 345.49,386.6 354.2,414.36 C 362.91,442.13 415.65,453.91 435.34,432.48 C 455.03,411.06 438.86,359.5 410.46,353.15" fill="none" stroke="#00A287" stroke-width="1"/>
	<path d="M 416.85,346.59 C 384.47,336.38 337.98,378.97 345.33,412.11 C 352.67,445.26 412.8,464.22 437.83,441.29 C 462.86,418.36 449.22,356.81 416.85,346.59" fill="none" stroke="#FF6700" stroke-width="1"/>
	<path d="M 423.53,340.48 C 387.45,326.22 331.0,371.01 336.69,409.38 C 342.38,447.76 409.39,474.25 439.78,450.13 C 470.17,426.02 459.61,354.74 423.53,340.48" fill="none" stroke="#00A287" stroke-width="1"/>
	<path d="M 429.03,334.11 C 389.08,316.51 323.69,364.42 328.42,407.81 C 333.16,451.2 407.34,483.88 442.55,458.08 C 477.76,432.29 468.97,351.71 429.03,334.11" fill="none" stroke="#FF6700" stroke-width="1"/>
	<path d="M 432.01,326.68 C 387.57,307.28 315.09,360.74 320.5,408.93 C 325.92,457.13 408.46,493.17 447.49,464.38 C 486.52,435.6 476.46,346.09 432.01,326.68" fill="none" stroke="#00A287" stroke-width="1"/>
	<path d="M 431.62,317.88 C 381.83,298.71 304.78,360.98 313.07,413.68 C 321.36,466.38 413.82,501.97 455.31,468.44 C 496.81,434.91 481.4,337.04 431.62,317.88" fill="none" stroke="#FF6700" stroke-width="1"/>
	<path d="M 427.74,308.09 C 372.02,291.28 293.24,365.27 306.54,421.93 C 319.83,478.59 423.3,509.82 465.72,469.97 C 508.14,430.13 483.45,324.91 427.74,308.09" fill="none" stroke="#00A287" stroke-width="1"/>
	<path d="M 421.35,298.22 C 359.65,285.27 281.53,372.49 301.18,432.4 C 320.82,492.31 435.41,516.35 477.47,469.39 C 519.53,422.42 483.06,311.16 421.35,298.22" fill="none" stroke="#FF6700" stroke-width="1"/>
	<path d="M 414.48,288.94 C 347.16,280.16 270.52,380.29 296.58,442.99 C 322.64,505.68 447.67,521.99 488.94,468.07 C 530.21,414.16 481.81,297.72 414.48,288.94" fill="none" stroke="#00A287" stroke-width="1"/>
	<path d="M 409.67,280.39 C 337.16,274.53 260.4,385.71 291.58,451.43 C 322.76,517.16 457.42,528.04 498.75,468.18 C 540.08,408.31 482.18,286.25 409.67,280.39" fill="none" stroke="#FF6700" stroke-width="1"/>
	<path d="M 409.17,272.33 C 331.77,266.77 250.96,386.09 284.85,455.9 C 318.74,525.7 462.47,536.02 505.98,471.77 C 549.49,407.52 486.56,277.89 409.17,272.33" fill="none" stroke="#00A287" stroke-width="1"/>
	<path d="M 414.25,264.75 C 332.26,256.11 242.23,379.96 275.74,455.28 C 309.26,530.61 461.53,546.65 510.01,479.97 C 558.48,413.28 496.24,273.39 414.25,264.75" fill="none" stroke="#FF6700" stroke-width="1"/>
	<path d="M 424.71,258.14 C 338.7,243.16 234.76,367.57 264.79,449.54 C 294.82,531.5 454.54,559.32 510.51,492.33 C 566.48,425.34 510.71,273.11 424.71,258.14" fill="none" stroke="#00A287" stroke-width="1"/>
	<path d="M 438.7,253.01 C 349.6,229.55 229.12,351.08 253.35,439.98 C 277.59,528.88 443.07,572.45 507.95,507.01 C 572.82,441.57 527.81,276.47 438.7,253.01" fill="none" stroke="#FF6700" stroke-width="1"/>
</svg>
